<?xml version="1.0" encoding="utf-8"?>
<svg version="1.1" xmlns:xlink="http://www.w3.org/1999/xlink" width="14px" height="14px" viewBox="301 555  14 14" xmlns="http://www.w3.org/2000/svg">
  <path d="M 301.5 557  A 1.5 1.5 0 0 1 303 555.5 L 313 555.5  A 1.5 1.5 0 0 1 314.5 557 L 314.5 567  A 1.5 1.5 0 0 1 313 568.5 L 303 568.5  A 1.5 1.5 0 0 1 301.5 567 L 301.5 557  Z " fill-rule="nonzero" fill="#f0f0f0" stroke="none" />
  <path d="M 301.5 557  A 1.5 1.5 0 0 1 303 555.5 L 313 555.5  A 1.5 1.5 0 0 1 314.5 557 L 314.5 567  A 1.5 1.5 0 0 1 313 568.5 L 303 568.5  A 1.5 1.5 0 0 1 301.5 567 L 301.5 557  Z " stroke-width="1" stroke="#2699fb" fill="none" />
</svg>