<?xml version="1.0" encoding="utf-8"?>
<svg version="1.1" xmlns:xlink="http://www.w3.org/1999/xlink" width="14px" height="14px" viewBox="496 555  14 14" xmlns="http://www.w3.org/2000/svg">
  <path d="M 496.5 557  A 1.5 1.5 0 0 1 498 555.5 L 508 555.5  A 1.5 1.5 0 0 1 509.5 557 L 509.5 567  A 1.5 1.5 0 0 1 508 568.5 L 498 568.5  A 1.5 1.5 0 0 1 496.5 567 L 496.5 557  Z " fill-rule="nonzero" fill="#ffffff" stroke="none" />
  <path d="M 496.5 557  A 1.5 1.5 0 0 1 498 555.5 L 508 555.5  A 1.5 1.5 0 0 1 509.5 557 L 509.5 567  A 1.5 1.5 0 0 1 508 568.5 L 498 568.5  A 1.5 1.5 0 0 1 496.5 567 L 496.5 557  Z " stroke-width="1" stroke="#2699fb" fill="none" />
  <path d="M 499.5 562.5  L 502.5 565.5  " stroke-width="3" stroke="#2699fb" fill="none" />
  <path d="M 502.5 565.5  L 507.5 558.5  " stroke-width="3" stroke="#2699fb" fill="none" />
</svg>