<?xml version="1.0" encoding="utf-8"?>
<svg version="1.1" xmlns:xlink="http://www.w3.org/1999/xlink" width="14px" height="14px" viewBox="301 545.5  14 14" xmlns="http://www.w3.org/2000/svg">
  <path d="M 301.5 547.5  A 1.5 1.5 0 0 1 303 546 L 313 546  A 1.5 1.5 0 0 1 314.5 547.5 L 314.5 557.5  A 1.5 1.5 0 0 1 313 559 L 303 559  A 1.5 1.5 0 0 1 301.5 557.5 L 301.5 547.5  Z " fill-rule="nonzero" fill="#ffffff" stroke="none" />
  <path d="M 301.5 547.5  A 1.5 1.5 0 0 1 303 546 L 313 546  A 1.5 1.5 0 0 1 314.5 547.5 L 314.5 557.5  A 1.5 1.5 0 0 1 313 559 L 303 559  A 1.5 1.5 0 0 1 301.5 557.5 L 301.5 547.5  Z " stroke-width="1" stroke="#2699fb" fill="none" />
  <path d="M 304.5 553  L 307.5 556  " stroke-width="3" stroke="#2699fb" fill="none" />
  <path d="M 307.5 556  L 312.5 549  " stroke-width="3" stroke="#2699fb" fill="none" />
</svg>