<?xml version="1.0" encoding="utf-8"?>
<svg version="1.1" xmlns:xlink="http://www.w3.org/1999/xlink" width="14px" height="14px" viewBox="496 545.5  14 14" xmlns="http://www.w3.org/2000/svg">
  <path d="M 496.5 547.5  A 1.5 1.5 0 0 1 498 546 L 508 546  A 1.5 1.5 0 0 1 509.5 547.5 L 509.5 557.5  A 1.5 1.5 0 0 1 508 559 L 498 559  A 1.5 1.5 0 0 1 496.5 557.5 L 496.5 547.5  Z " fill-rule="nonzero" fill="#ffffff" stroke="none" />
  <path d="M 496.5 547.5  A 1.5 1.5 0 0 1 498 546 L 508 546  A 1.5 1.5 0 0 1 509.5 547.5 L 509.5 557.5  A 1.5 1.5 0 0 1 508 559 L 498 559  A 1.5 1.5 0 0 1 496.5 557.5 L 496.5 547.5  Z " stroke-width="1" stroke="#2699fb" fill="none" />
</svg>