<?xml version="1.0" encoding="utf-8"?>
<svg version="1.1" xmlns:xlink="http://www.w3.org/1999/xlink" width="14px" height="14px" viewBox="139 545.5  14 14" xmlns="http://www.w3.org/2000/svg">
  <path d="M 139.5 547.5  A 1.5 1.5 0 0 1 141 546 L 151 546  A 1.5 1.5 0 0 1 152.5 547.5 L 152.5 557.5  A 1.5 1.5 0 0 1 151 559 L 141 559  A 1.5 1.5 0 0 1 139.5 557.5 L 139.5 547.5  Z " fill-rule="nonzero" fill="#ffffff" stroke="none" />
  <path d="M 139.5 547.5  A 1.5 1.5 0 0 1 141 546 L 151 546  A 1.5 1.5 0 0 1 152.5 547.5 L 152.5 557.5  A 1.5 1.5 0 0 1 151 559 L 141 559  A 1.5 1.5 0 0 1 139.5 557.5 L 139.5 547.5  Z " stroke-width="1" stroke="#2699fb" fill="none" />
</svg>