<?xml version="1.0" encoding="utf-8"?>
<svg version="1.1" xmlns:xlink="http://www.w3.org/1999/xlink" width="22px" height="17px" xmlns="http://www.w3.org/2000/svg">
  <g transform="matrix(1 0 0 1 -783 -336 )">
    <path d="M 21.2743055555556 7.7529296875  C 21.7581018518519 7.96321614583333  22 8.21223958333333  22 8.5  C 22 8.78776041666667  21.7581018518519 9.03678385416667  21.2743055555556 9.2470703125  L 4.16319444444444 16.6845703125  C 3.67939814814815 16.8948567708333  3.10648148148148 17  2.44444444444444 17  C 1.78240740740741 17  1.20949074074074 16.8948567708333  0.725694444444444 16.6845703125  C 0.241898148148148 16.4742838541667  0 16.2252604166667  0 15.9375  L 0 1.0625  C 0 0.774739583333331  0.241898148148148 0.525716145833331  0.725694444444444 0.3154296875  C 1.20949074074074 0.105143229166665  1.78240740740741 0  2.44444444444444 0  C 3.10648148148148 0  3.67939814814815 0.105143229166665  4.16319444444444 0.3154296875  L 21.2743055555556 7.7529296875  Z " fill-rule="nonzero" fill="#d7d7d7" stroke="none" transform="matrix(1 0 0 1 783 336 )" />
  </g>
</svg>