<?xml version="1.0" encoding="utf-8"?>
<svg version="1.1" xmlns:xlink="http://www.w3.org/1999/xlink" width="22px" height="17px" xmlns="http://www.w3.org/2000/svg">
  <g transform="matrix(1 0 0 1 -583 -336 )">
    <path d="M 21.2743055555556 0.3154296875  C 21.7581018518519 0.525716145833331  22 0.774739583333331  22 1.0625  L 22 15.9375  C 22 16.2252604166667  21.7581018518519 16.4742838541667  21.2743055555556 16.6845703125  C 20.7905092592593 16.8948567708333  20.2175925925926 17  19.5555555555556 17  C 18.8935185185185 17  18.3206018518519 16.8948567708333  17.8368055555556 16.6845703125  L 0.725694444444444 9.2470703125  C 0.241898148148149 9.03678385416667  0 8.78776041666667  0 8.5  C 0 8.21223958333333  0.241898148148149 7.96321614583333  0.725694444444444 7.7529296875  L 17.8368055555556 0.3154296875  C 18.3206018518519 0.105143229166665  18.8935185185185 0  19.5555555555556 0  C 20.2175925925926 0  20.7905092592593 0.105143229166665  21.2743055555556 0.3154296875  Z " fill-rule="nonzero" fill="#8c8c8c" stroke="none" transform="matrix(1 0 0 1 583 336 )" />
  </g>
</svg>