<?xml version="1.0" encoding="utf-8"?>
<svg version="1.1" xmlns:xlink="http://www.w3.org/1999/xlink" width="33px" height="33px" xmlns="http://www.w3.org/2000/svg">
  <g transform="matrix(1 0 0 1 -1304 -2344 )">
    <path d="M 6.1875 0  L 26.8125 0  C 28.5169270833333 0  29.9742838541667 0.605143229166665  31.1845703125 1.8154296875  C 32.3948567708333 3.02571614583333  33 4.48307291666666  33 6.1875  L 33 26.8125  C 33 28.5169270833333  32.3948567708333 29.9742838541667  31.1845703125 31.1845703125  C 29.9742838541667 32.3948567708333  28.5169270833333 33  26.8125 33  L 22.7734375 33  L 22.7734375 20.216796875  L 27.048828125 20.216796875  L 27.693359375 15.232421875  L 22.7734375 15.232421875  L 22.7734375 12.052734375  C 22.7734375 11.2506510416667  22.9417317708333 10.6490885416667  23.2783203125 10.248046875  C 23.6149088541667 9.84700520833333  24.2701822916667 9.646484375  25.244140625 9.646484375  L 27.865234375 9.625  L 27.865234375 5.177734375  C 26.962890625 5.048828125  25.6881510416667 4.984375  24.041015625 4.984375  C 22.0930989583333 4.984375  20.5354817708333 5.55729166666666  19.3681640625 6.703125  C 18.2008463541667 7.84895833333333  17.6171875 9.46744791666666  17.6171875 11.55859375  L 17.6171875 15.232421875  L 13.3203125 15.232421875  L 13.3203125 20.216796875  L 17 20.216796875  L 17 33  L 6.1875 33  C 4.48307291666667 33  3.02571614583333 32.3948567708333  1.8154296875 31.1845703125  C 0.605143229166667 29.9742838541667  0 28.5169270833333  0 26.8125  L 0 6.1875  C 0 4.48307291666666  0.605143229166667 3.02571614583333  1.8154296875 1.8154296875  C 3.02571614583333 0.605143229166665  4.48307291666667 0  6.1875 0  Z " fill-rule="nonzero" fill="#ffffff" stroke="none" transform="matrix(1 0 0 1 1304 2344 )" />
  </g>
</svg>