<?xml version="1.0" encoding="utf-8"?>
<svg version="1.1" xmlns:xlink="http://www.w3.org/1999/xlink" width="33px" height="28px" xmlns="http://www.w3.org/2000/svg">
  <g transform="matrix(1 0 0 1 -1161 -2347 )">
    <path d="M 29.1053299492386 4.41875  C 30.4035532994924 4.27291666666667  31.7017766497462 3.90833333333333  33 3.325  C 32.0647208121827 4.75416666666666  30.9340101522843 5.971875  29.6078680203046 6.978125  C 29.6218274111675 7.18229166666667  29.628807106599 7.48854166666666  29.628807106599 7.896875  C 29.628807106599 9.79270833333333  29.363578680203 11.6848958333333  28.8331218274112 13.5734375  C 28.3026649746193 15.4619791666667  27.4965101522843 17.2739583333333  26.4146573604061 19.009375  C 25.3328045685279 20.7447916666667  24.0450507614213 22.2796875  22.5513959390863 23.6140625  C 21.0577411167513 24.9484375  19.2569796954315 26.0130208333333  17.1491116751269 26.8078125  C 15.0412436548223 27.6026041666667  12.7868020304569 28  10.3857868020305 28  C 6.60279187817259 28  3.14086294416244 26.9427083333333  0 24.828125  C 0.488578680203046 24.8864583333333  1.03299492385787 24.915625  1.63324873096447 24.915625  C 4.77411167512691 24.915625  7.57296954314721 23.909375  10.0298223350254 21.896875  C 8.56408629441624 21.8677083333333  7.25190355329949 21.3973958333333  6.09327411167513 20.4859375  C 4.93464467005076 19.5744791666667  4.13895939086294 18.4114583333333  3.70621827411168 16.996875  C 4.16687817258883 17.0697916666667  4.59263959390863 17.10625  4.98350253807107 17.10625  C 5.58375634517767 17.10625  6.17703045685279 17.0260416666667  6.76332487309645 16.865625  C 5.1998730964467 16.5302083333333  3.90513959390863 15.7171875  2.87912436548223 14.4265625  C 1.85310913705584 13.1359375  1.34010152284264 11.6375  1.34010152284264 9.93125  L 1.34010152284264 9.84375  C 2.28934010152284 10.3979166666667  3.30837563451777 10.696875  4.39720812182741 10.740625  C 3.4758883248731 10.0989583333333  2.74302030456853 9.26041666666667  2.19860406091371 8.225  C 1.65418781725888 7.18958333333333  1.38197969543147 6.06666666666666  1.38197969543147 4.85625  C 1.38197969543147 3.57291666666667  1.68908629441624 2.384375  2.30329949238579 1.290625  C 3.99238578680203 3.46354166666667  6.04790609137056 5.20260416666667  8.46986040609137 6.5078125  C 10.8918147208122 7.81302083333333  13.4847715736041 8.53854166666667  16.248730964467 8.684375  C 16.1370558375635 8.13020833333333  16.0812182741117 7.590625  16.0812182741117 7.065625  C 16.0812182741117 5.11145833333333  16.7407994923858 3.4453125  18.059961928934 2.0671875  C 19.3791243654822 0.689062500000001  20.9739847715736 0  22.8445431472081 0  C 24.7988578680203 0  26.4460659898477 0.743750000000001  27.7861675126904 2.23125  C 29.3077411167513 1.925  30.738578680203 1.35625  32.0786802030457 0.525000000000001  C 31.5621827411168 2.20208333333333  30.5710659898477 3.5  29.1053299492386 4.41875  Z " fill-rule="nonzero" fill="#ffffff" stroke="none" transform="matrix(1 0 0 1 1161 2347 )" />
  </g>
</svg>