<?xml version="1.0" encoding="utf-8"?>
<svg version="1.1" xmlns:xlink="http://www.w3.org/1999/xlink" width="33px" height="33px" xmlns="http://www.w3.org/2000/svg">
  <g transform="matrix(1 0 0 1 -1233 -2344 )">
    <path d="M 20.388671875 20.388671875  C 21.462890625 19.314453125  22 18.0182291666667  22 16.5  C 22 14.9817708333333  21.462890625 13.685546875  20.388671875 12.611328125  C 19.314453125 11.537109375  18.0182291666667 11  16.5 11  C 14.9817708333333 11  13.685546875 11.537109375  12.611328125 12.611328125  C 11.537109375 13.685546875  11 14.9817708333333  11 16.5  C 11 18.0182291666667  11.537109375 19.314453125  12.611328125 20.388671875  C 13.685546875 21.462890625  14.9817708333333 22  16.5 22  C 18.0182291666667 22  19.314453125 21.462890625  20.388671875 20.388671875  Z M 22.494140625 10.505859375  C 24.1412760416667 12.1529947916667  24.96484375 14.1510416666667  24.96484375 16.5  C 24.96484375 18.8489583333333  24.1412760416667 20.8470052083333  22.494140625 22.494140625  C 20.8470052083333 24.1412760416667  18.8489583333333 24.96484375  16.5 24.96484375  C 14.1510416666667 24.96484375  12.1529947916667 24.1412760416667  10.505859375 22.494140625  C 8.85872395833333 20.8470052083333  8.03515625 18.8489583333333  8.03515625 16.5  C 8.03515625 14.1510416666667  8.85872395833333 12.1529947916667  10.505859375 10.505859375  C 12.1529947916667 8.85872395833333  14.1510416666667 8.03515625  16.5 8.03515625  C 18.8489583333333 8.03515625  20.8470052083333 8.85872395833333  22.494140625 10.505859375  Z M 26.705078125 6.294921875  C 27.091796875 6.681640625  27.28515625 7.14713541666666  27.28515625 7.69140625  C 27.28515625 8.23567708333333  27.091796875 8.701171875  26.705078125 9.087890625  C 26.318359375 9.474609375  25.8528645833333 9.66796875  25.30859375 9.66796875  C 24.7643229166667 9.66796875  24.298828125 9.474609375  23.912109375 9.087890625  C 23.525390625 8.701171875  23.33203125 8.23567708333333  23.33203125 7.69140625  C 23.33203125 7.14713541666666  23.525390625 6.681640625  23.912109375 6.294921875  C 24.298828125 5.908203125  24.7643229166667 5.71484375  25.30859375 5.71484375  C 25.8528645833333 5.71484375  26.318359375 5.908203125  26.705078125 6.294921875  Z M 18.1435546875 2.9541015625  C 17.1481119791667 2.96126302083333  16.6002604166667 2.96484375  16.5 2.96484375  C 16.3997395833333 2.96484375  15.8518880208333 2.96126302083333  14.8564453125 2.9541015625  C 13.8610026041667 2.94694010416666  13.10546875 2.94694010416666  12.58984375 2.9541015625  C 12.07421875 2.96126302083333  11.3831380208333 2.98274739583333  10.5166015625 3.0185546875  C 9.65006510416667 3.05436197916666  8.91243489583333 3.1259765625  8.3037109375 3.2333984375  C 7.69498697916667 3.3408203125  7.18294270833333 3.47330729166666  6.767578125 3.630859375  C 6.05143229166667 3.91731770833333  5.42122395833333 4.33268229166666  4.876953125 4.876953125  C 4.33268229166667 5.42122395833333  3.91731770833333 6.05143229166666  3.630859375 6.767578125  C 3.47330729166667 7.18294270833333  3.3408203125 7.69498697916666  3.2333984375 8.3037109375  C 3.1259765625 8.91243489583333  3.05436197916667 9.65006510416666  3.0185546875 10.5166015625  C 2.98274739583333 11.3831380208333  2.96126302083333 12.07421875  2.9541015625 12.58984375  C 2.94694010416667 13.10546875  2.94694010416667 13.8610026041667  2.9541015625 14.8564453125  C 2.96126302083333 15.8518880208333  2.96484375 16.3997395833333  2.96484375 16.5  C 2.96484375 16.6002604166667  2.96126302083333 17.1481119791667  2.9541015625 18.1435546875  C 2.94694010416667 19.1389973958333  2.94694010416667 19.89453125  2.9541015625 20.41015625  C 2.96126302083333 20.92578125  2.98274739583333 21.6168619791667  3.0185546875 22.4833984375  C 3.05436197916667 23.3499348958333  3.1259765625 24.0875651041667  3.2333984375 24.6962890625  C 3.3408203125 25.3050130208333  3.47330729166667 25.8170572916667  3.630859375 26.232421875  C 3.91731770833333 26.9485677083333  4.33268229166667 27.5787760416667  4.876953125 28.123046875  C 5.42122395833333 28.6673177083333  6.05143229166667 29.0826822916667  6.767578125 29.369140625  C 7.18294270833333 29.5266927083333  7.69498697916667 29.6591796875  8.3037109375 29.7666015625  C 8.91243489583333 29.8740234375  9.65006510416667 29.9456380208333  10.5166015625 29.9814453125  C 11.3831380208333 30.0172526041667  12.07421875 30.0387369791667  12.58984375 30.0458984375  C 13.10546875 30.0530598958333  13.8610026041667 30.0530598958333  14.8564453125 30.0458984375  C 15.8518880208333 30.0387369791667  16.3997395833333 30.03515625  16.5 30.03515625  C 16.6002604166667 30.03515625  17.1481119791667 30.0387369791667  18.1435546875 30.0458984375  C 19.1389973958333 30.0530598958333  19.89453125 30.0530598958333  20.41015625 30.0458984375  C 20.92578125 30.0387369791667  21.6168619791667 30.0172526041667  22.4833984375 29.9814453125  C 23.3499348958333 29.9456380208333  24.0875651041667 29.8740234375  24.6962890625 29.7666015625  C 25.3050130208333 29.6591796875  25.8170572916667 29.5266927083333  26.232421875 29.369140625  C 26.9485677083333 29.0826822916667  27.5787760416667 28.6673177083333  28.123046875 28.123046875  C 28.6673177083333 27.5787760416667  29.0826822916667 26.9485677083333  29.369140625 26.232421875  C 29.5266927083333 25.8170572916667  29.6591796875 25.3050130208333  29.7666015625 24.6962890625  C 29.8740234375 24.0875651041667  29.9456380208333 23.3499348958333  29.9814453125 22.4833984375  C 30.0172526041667 21.6168619791667  30.0387369791667 20.92578125  30.0458984375 20.41015625  C 30.0530598958333 19.89453125  30.0530598958333 19.1389973958333  30.0458984375 18.1435546875  C 30.0387369791667 17.1481119791667  30.03515625 16.6002604166667  30.03515625 16.5  C 30.03515625 16.3997395833333  30.0387369791667 15.8518880208333  30.0458984375 14.8564453125  C 30.0530598958333 13.8610026041667  30.0530598958333 13.10546875  30.0458984375 12.58984375  C 30.0387369791667 12.07421875  30.0172526041667 11.3831380208333  29.9814453125 10.5166015625  C 29.9456380208333 9.65006510416666  29.8740234375 8.91243489583333  29.7666015625 8.3037109375  C 29.6591796875 7.69498697916666  29.5266927083333 7.18294270833333  29.369140625 6.767578125  C 29.0826822916667 6.05143229166666  28.6673177083333 5.42122395833333  28.123046875 4.876953125  C 27.5787760416667 4.33268229166666  26.9485677083333 3.91731770833333  26.232421875 3.630859375  C 25.8170572916667 3.47330729166666  25.3050130208333 3.3408203125  24.6962890625 3.2333984375  C 24.0875651041667 3.1259765625  23.3499348958333 3.05436197916666  22.4833984375 3.0185546875  C 21.6168619791667 2.98274739583333  20.92578125 2.96126302083333  20.41015625 2.9541015625  C 19.89453125 2.94694010416666  19.1389973958333 2.94694010416666  18.1435546875 2.9541015625  Z M 32.892578125 9.689453125  C 32.9641927083333 10.9498697916667  33 13.2200520833333  33 16.5  C 33 19.7799479166667  32.9641927083333 22.0501302083333  32.892578125 23.310546875  C 32.7493489583333 26.2897135416667  31.861328125 28.595703125  30.228515625 30.228515625  C 28.595703125 31.861328125  26.2897135416667 32.7493489583333  23.310546875 32.892578125  C 22.0501302083333 32.9641927083333  19.7799479166667 33  16.5 33  C 13.2200520833333 33  10.9498697916667 32.9641927083333  9.689453125 32.892578125  C 6.71028645833333 32.7493489583333  4.404296875 31.861328125  2.771484375 30.228515625  C 1.138671875 28.595703125  0.250651041666667 26.2897135416667  0.107421875 23.310546875  C 0.0358072916666667 22.0501302083333  0 19.7799479166667  0 16.5  C 0 13.2200520833333  0.0358072916666667 10.9498697916667  0.107421875 9.689453125  C 0.250651041666667 6.71028645833333  1.138671875 4.404296875  2.771484375 2.771484375  C 4.404296875 1.138671875  6.71028645833333 0.250651041666665  9.689453125 0.107421875000001  C 10.9498697916667 0.0358072916666622  13.2200520833333 0  16.5 0  C 19.7799479166667 0  22.0501302083333 0.0358072916666622  23.310546875 0.107421875000001  C 26.2897135416667 0.250651041666665  28.595703125 1.138671875  30.228515625 2.771484375  C 31.861328125 4.404296875  32.7493489583333 6.71028645833333  32.892578125 9.689453125  Z " fill-rule="nonzero" fill="#ffffff" stroke="none" transform="matrix(1 0 0 1 1233 2344 )" />
  </g>
</svg>