<?xml version="1.0" encoding="utf-8"?>
<svg version="1.1" xmlns:xlink="http://www.w3.org/1999/xlink" width="23px" height="27px" xmlns="http://www.w3.org/2000/svg">
  <g transform="matrix(1 0 0 1 -1314 -27 )">
    <path d="M 22.847265625 19.5205078125  C 22.9490885416667 20.4052734375  23 21.345703125  23 22.341796875  C 23 23.619140625  22.6256510416667 24.71484375  21.876953125 25.62890625  C 21.1282552083333 26.54296875  20.2268229166667 27  19.17265625 27  L 3.82734375 27  C 2.77317708333333 27  1.87174479166667 26.54296875  1.123046875 25.62890625  C 0.374348958333333 24.71484375  0 23.619140625  0 22.341796875  C 0 21.345703125  0.0509114583333335 20.4052734375  0.152734375 19.5205078125  C 0.254557291666667 18.6357421875  0.443229166666667 17.7451171875  0.71875 16.8486328125  C 0.994270833333334 15.9521484375  1.34466145833333 15.1845703125  1.769921875 14.5458984375  C 2.19518229166667 13.9072265625  2.758203125 13.3857421875  3.458984375 12.9814453125  C 4.159765625 12.5771484375  4.96536458333333 12.375  5.87578125 12.375  C 7.44505208333333 13.875  9.31979166666667 14.625  11.5 14.625  C 13.6802083333333 14.625  15.5549479166667 13.875  17.12421875 12.375  C 18.0346354166667 12.375  18.840234375 12.5771484375  19.541015625 12.9814453125  C 20.241796875 13.3857421875  20.8048177083333 13.9072265625  21.230078125 14.5458984375  C 21.6553385416667 15.1845703125  22.0057291666667 15.9521484375  22.28125 16.8486328125  C 22.5567708333333 17.7451171875  22.7454427083333 18.6357421875  22.847265625 19.5205078125  Z M 16.378515625 1.9775390625  C 17.726171875 3.2958984375  18.4 4.88671875  18.4 6.75  C 18.4 8.61328125  17.726171875 10.2041015625  16.378515625 11.5224609375  C 15.030859375 12.8408203125  13.4046875 13.5  11.5 13.5  C 9.5953125 13.5  7.969140625 12.8408203125  6.621484375 11.5224609375  C 5.273828125 10.2041015625  4.6 8.61328125  4.6 6.75  C 4.6 4.88671875  5.273828125 3.2958984375  6.621484375 1.9775390625  C 7.969140625 0.6591796875  9.5953125 0  11.5 0  C 13.4046875 0  15.030859375 0.6591796875  16.378515625 1.9775390625  Z " fill-rule="nonzero" fill="#ffffff" stroke="none" transform="matrix(1 0 0 1 1314 27 )" />
  </g>
</svg>