<?xml version="1.0" encoding="utf-8"?>
<svg version="1.1" xmlns:xlink="http://www.w3.org/1999/xlink" width="32px" height="27px" xmlns="http://www.w3.org/2000/svg">
  <g transform="matrix(1 0 0 1 -306 -27 )">
    <path d="M 31.6041666666667 22.00078125  C 31.8680555555556 22.26796875  32 22.584375  32 22.95  L 32 25.65  C 32 26.015625  31.8680555555556 26.33203125  31.6041666666667 26.59921875  C 31.3402777777778 26.86640625  31.0277777777778 27  30.6666666666667 27  L 1.33333333333333 27  C 0.972222222222222 27  0.659722222222222 26.86640625  0.395833333333333 26.59921875  C 0.131944444444444 26.33203125  0 26.015625  0 25.65  L 0 22.95  C 0 22.584375  0.131944444444444 22.26796875  0.395833333333333 22.00078125  C 0.659722222222222 21.73359375  0.972222222222222 21.6  1.33333333333333 21.6  L 30.6666666666667 21.6  C 31.0277777777778 21.6  31.3402777777778 21.73359375  31.6041666666667 22.00078125  Z M 31.6041666666667 11.20078125  C 31.8680555555556 11.46796875  32 11.784375  32 12.15  L 32 14.85  C 32 15.215625  31.8680555555556 15.53203125  31.6041666666667 15.79921875  C 31.3402777777778 16.06640625  31.0277777777778 16.2  30.6666666666667 16  L 1.33333333333333 16  C 0.972222222222222 16.2  0.659722222222222 16.06640625  0.395833333333333 15.79921875  C 0.131944444444444 15.53203125  0 15.215625  0 14.85  L 0 12.15  C 0 11.784375  0.131944444444444 11.46796875  0.395833333333333 11.20078125  C 0.659722222222222 10.93359375  0.972222222222222 10.8  1.33333333333333 11  L 30.6666666666667 11  C 31.0277777777778 10.8  31.3402777777778 10.93359375  31.6041666666667 11.20078125  Z M 31.6041666666667 0.400781250000001  C 31.8680555555556 0.667968749999998  32 0.984374999999998  32 1.35  L 32 4.05  C 32 4.415625  31.8680555555556 4.73203125  31.6041666666667 4.99921875  C 31.3402777777778 5.26640625  31.0277777777778 5.4  30.6666666666667 5.4  L 1.33333333333333 5.4  C 0.972222222222222 5.4  0.659722222222222 5.26640625  0.395833333333333 4.99921875  C 0.131944444444444 4.73203125  0 4.415625  0 4.05  L 0 1.35  C 0 0.984374999999998  0.131944444444444 0.667968749999998  0.395833333333333 0.400781250000001  C 0.659722222222222 0.133593749999998  0.972222222222222 0  1.33333333333333 0  L 30.6666666666667 0  C 31.0277777777778 0  31.3402777777778 0.133593749999998  31.6041666666667 0.400781250000001  Z " fill-rule="nonzero" fill="#ffffff" stroke="none" transform="matrix(1 0 0 1 306 27 )" />
  </g>
</svg>