<?xml version="1.0" encoding="utf-8"?>
<svg version="1.1" xmlns:xlink="http://www.w3.org/1999/xlink" width="111px" height="70px" xmlns="http://www.w3.org/2000/svg">
  <g transform="matrix(1 0 0 1 -211 -621 )">
    <path d="M 82.4137834821429 54.8394097222222  C 90.693359375 49.9175347222222  97.5792410714286 43.3043981481481  103.071428571429 35  C 96.7946428571429 25.4398148148148  88.9280133928571 18.2899305555556  79.4715401785714 13.5503472222222  C 81.9905133928571 17.7633101851852  83.25 22.3206018518518  83.25 27.2222222222222  C 83.25 34.7164351851852  80.5348772321429 41.127025462963  75.1046316964286 46.4539930555556  C 69.6743861607143 51.7809606481481  63.1395089285714 54.4444444444444  55.5 54.4444444444444  C 47.8604910714286 54.4444444444444  41.3256138392857 51.7809606481481  35.8953683035714 46.4539930555556  C 30.4651227678571 41.127025462963  27.75 34.7164351851852  27.75 27.2222222222222  C 27.75 22.3206018518518  29.0094866071429 17.7633101851852  31.5284598214286 13.5503472222222  C 22.0719866071429 18.2899305555556  14.2053571428571 25.4398148148148  7.92857142857143 35  C 13.4207589285714 43.3043981481481  20.306640625 49.9175347222222  28.5862165178571 54.8394097222222  C 36.8657924107143 59.7612847222222  45.8370535714286 62.2222222222222  55.5 62.2222222222222  C 65.1629464285714 62.2222222222222  74.1342075892857 59.7612847222222  82.4137834821429 54.8394097222222  Z M 57.6060267857143 13.7326388888889  C 58.1841517857143 13.1655092592593  58.4732142857143 12.4768518518518  58.4732142857143 11.6666666666667  C 58.4732142857143 10.8564814814815  58.1841517857143 10.1678240740741  57.6060267857143 9.60069444444444  C 57.0279017857143 9.03356481481481  56.3258928571429 8.74999999999999  55.5 8.75  C 50.3381696428571 8.74999999999999  45.9093191964286 10.5627893518518  42.2134486607143 14.1883680555556  C 38.517578125 17.8139467592593  36.6696428571429 22.1585648148148  36.6696428571429 27.2222222222222  C 36.6696428571429 28.0324074074074  36.9587053571429 28.7210648148148  37.5368303571429 29.2881944444444  C 38.1149553571429 29.8553240740741  38.8169642857143 30.1388888888889  39.6428571428571 30.1388888888889  C 40.46875 30.1388888888889  41.1707589285714 29.8553240740741  41.7488839285714 29.2881944444444  C 42.3270089285714 28.7210648148148  42.6160714285714 28.0324074074074  42.6160714285714 27.2222222222222  C 42.6160714285714 23.7384259259259  43.8755580357143 20.7609953703704  46.39453125 18.2899305555556  C 48.9135044642857 15.8188657407407  51.9486607142857 14.5833333333333  55.5 14.5833333333333  C 56.3258928571429 14.5833333333333  57.0279017857143 14.2997685185185  57.6060267857143 13.7326388888889  Z M 109.761160714286 30.8072916666667  C 110.587053571429 32.2251157407407  111 33.6226851851852  111 35  C 111 36.3773148148148  110.587053571429 37.7748842592593  109.761160714286 39.1927083333333  C 103.979910714286 48.509837962963  96.2061941964286 55.9736689814815  86.4400111607143 61.5842013888889  C 76.673828125 67.1947337962963  66.3604910714286 70  55.5 70  C 44.6395089285714 70  34.326171875 67.1846064814815  24.5599888392857 61.5538194444444  C 14.7938058035714 55.9230324074074  7.02008928571429 48.4693287037037  1.23883928571429 39.1927083333333  C 0.412946428571429 37.7748842592593  0 36.3773148148148  0 35  C 0 33.6226851851852  0.412946428571429 32.2251157407407  1.23883928571429 30.8072916666667  C 7.02008928571429 21.5306712962963  14.7938058035714 14.0769675925926  24.5599888392857 8.44618055555556  C 34.326171875 2.81539351851851  44.6395089285714 0  55.5 0  C 66.3604910714286 0  76.673828125 2.81539351851851  86.4400111607143 8.44618055555556  C 96.2061941964286 14.0769675925926  103.979910714286 21.5306712962963  109.761160714286 30.8072916666667  Z " fill-rule="nonzero" fill="#2699fb" stroke="none" transform="matrix(1 0 0 1 211 621 )" />
  </g>
</svg>